# xmcd
#
# Track frame offsets: 
#        150
#        18010
#        42609
#        61236
#        82301
#        112474
#        133720
#
# Disc length: 2010 seconds
#
# Revision: 0
# Processed by: cddbd v1.5.2PL0 Copyright (c) Steve Scherf et al.
# Submitted via: ExactAudioCopy v0.99pb4
#
DISCID=6407d807
DTITLE=catfish - Sounds of shate velvet
DYEAR=1999
DGENRE=Blues
TTITLE0=Catfish - My Blues is gone init
TTITLE1=Catfish - Time changes people
TTITLE2=Catfish - Must be love
TTITLE3=Catfish - Find our strength
TTITLE4=Catfish - Accelerated progress
TTITLE5=Catfish - Up in smoke (Fire in the Building)
TTITLE6=Catfish - Two letter nam(ed) blues
EXTD=
EXTT0=
EXTT1=
EXTT2=
EXTT3=
EXTT4=
EXTT5=
EXTT6=
PLAYORDER=
